<svg xmlns="http://www.w3.org/2000/svg" viewBox="0 0 24 24" fill="none">
  <defs>
    <linearGradient id="ticket-grad" x1="0%" y1="0%" x2="100%" y2="100%">
      <stop offset="0%" stop-color="#2563eb" />
      <stop offset="100%" stop-color="#06b6d4" />
    </linearGradient>
  </defs>
  <path d="M2 9a3 3 0 0 1 0 6v2a2 2 0 0 0 2 2h16a2 2 0 0 0 2-2v-2a3 3 0 0 1 0-6V7a2 2 0 0 0-2-2H4a2 2 0 0 0-2 2Z" stroke="url(#ticket-grad)" stroke-width="2" stroke-linecap="round" stroke-linejoin="round" />
  <path d="M9 5v14" stroke="url(#ticket-grad)" stroke-width="2" stroke-dasharray="3 3" stroke-linecap="round" />
  <circle cx="15.5" cy="12" r="3.5" stroke="url(#ticket-grad)" stroke-width="2" />
  <path d="M18 14.5l3 3" stroke="url(#ticket-grad)" stroke-width="2" stroke-linecap="round" />
</svg>